<?xml version="1.0" encoding="UTF-8"?>
<svg id="Layer_1" xmlns="http://www.w3.org/2000/svg" version="1.1" viewBox="0 0 3000 3000">
  <!-- Generator: Adobe Illustrator 29.4.0, SVG Export Plug-In . SVG Version: 2.1.0 Build 152)  -->
  <defs>
    <style>
      .st0 {
        fill: #fff;
      }
    </style>
  </defs>
  <g>
    <path class="st0" d="M1457.1,1165v2.5h1.3c1.3,0,2.5.5,3.5,1.4,1,.9,1.9,2.1,2.6,3.4.8,1.3,1.3,2.8,1.6,4.3.3,1.5.5,2.9.5,4,0,0,.1,90-24,161.9-25.9,77-52.7,133.7-60.1,133.7s-9.3-12.5-9.3-13.9v-281.7c0-1.2.2-2.6.6-4.2.4-1.6,1-3,1.6-4.3.7-1.3,1.5-2.4,2.5-3.3,1-.9,2.1-1.4,3.3-1.4h1.3v-2.5h-35.8v2.5h1.3c1.3,0,2.5.5,3.5,1.4,1,.9,1.9,2.1,2.6,3.4.8,1.3,1.3,2.8,1.6,4.3.3,1.5.5,2.9.5,4v281.7c0,1.3-.2,2.8-.5,4.4-.3,1.6-.9,3.1-1.6,4.5-.8,1.4-1.6,2.6-2.6,3.5-1,.9-2.2,1.4-3.5,1.4h-1.3v2.5s35.6,0,38.5,0c11.4,0,52-71.7,73.9-136.2,24.3-71.8,24.4-161.8,24.4-161.9,0-1.2.2-2.6.6-4.2.4-1.6,1-3,1.6-4.3.7-1.3,1.5-2.4,2.5-3.3,1-.9,2.1-1.4,3.3-1.4h1.3v-2.5h-35.8Z"/>
    <path class="st0" d="M1542.9,1165v2.5h-1.3c-1.3,0-2.5.5-3.5,1.4-1,.9-1.9,2.1-2.6,3.4-.8,1.3-1.3,2.8-1.6,4.3-.3,1.5-.5,2.9-.5,4,0,0-.1,90,24,161.9,25.9,77,52.7,133.7,60.1,133.7,8.9,0,9.3-12.5,9.3-13.9v-281.7c0-1.2-.2-2.6-.6-4.2-.4-1.6-1-3-1.6-4.3-.7-1.3-1.5-2.4-2.5-3.3-1-.9-2.1-1.4-3.3-1.4h-1.3v-2.5h35.8v2.5h-1.3c-1.3,0-2.5.5-3.5,1.4-1,.9-1.9,2.1-2.6,3.4-.8,1.3-1.3,2.8-1.6,4.3-.3,1.5-.5,2.9-.5,4v281.7c0,1.3.2,2.8.5,4.4.3,1.6.9,3.1,1.6,4.5.8,1.4,1.6,2.6,2.6,3.5,1,.9,2.2,1.4,3.5,1.4h1.3v2.5s-35.6,0-38.5,0c-11.4,0-52-71.7-73.9-136.2-24.3-71.8-24.4-161.8-24.4-161.9,0-1.2-.2-2.6-.6-4.2-.4-1.6-1-3-1.6-4.3-.7-1.3-1.5-2.4-2.5-3.3-1-.9-2.1-1.4-3.3-1.4h-1.3v-2.5h35.8Z"/>
    <path class="st0" d="M1486.1,1478.7v-2.5h-1.3c-1.3,0-2.5-.5-3.5-1.4-1-.9-1.9-2.1-2.6-3.4-.8-1.3-1.3-2.8-1.6-4.3-.3-1.5-.5-2.9-.5-4v-68.3c0-57.1,47-56.5,47,0v68.3c0,1.2-.2,2.5-.5,4-.3,1.5-.9,2.9-1.6,4.3-.8,1.3-1.6,2.5-2.6,3.4-1,.9-2.2,1.4-3.5,1.4h-1.3v2.5h35.8v-2.5h-1.3c-1.2,0-2.3-.5-3.3-1.4-1-.9-1.9-2.1-2.6-3.4-.8-1.3-1.3-2.8-1.6-4.3-.3-1.5-.5-2.9-.5-4v-68.3c0-10.6-1.3-19.4-4-26.3-2.7-7-6.4-12.5-11.1-16.5-15.7-13.5-36.9-11.7-50.6,0-4.7,4-8.4,9.5-11.1,16.5-2.7,7-4,15.8-4,26.3v68.3c0,1.2-.2,2.5-.5,4-.3,1.5-.9,2.9-1.6,4.3-.8,1.3-1.6,2.5-2.6,3.4-1,.9-2.1,1.4-3.3,1.4h-1.3v2.5h35.8Z"/>
  </g>
  <g>
    <path class="st0" d="M1194.8,1887.4c-2,1-2.9,1.9-3.9,3.9-1-2-1.9-2.9-3.9-3.9,2-1,2.9-1.9,3.9-3.9,1,2,1.9,2.9,3.9,3.9Z"/>
    <path class="st0" d="M1813,1887.4c-2,1-2.9,1.9-3.9,3.9-1-2-1.9-2.9-3.9-3.9,2-1,2.9-1.9,3.9-3.9,1,2,1.9,2.9,3.9,3.9Z"/>
    <g>
      <path class="st0" d="M1249.7,1900.2c0,4.2,2.8,4.2,3.4,4.2v.9h-11.4v-.9c.7,0,3.4,0,3.4-4.2v-18.8c0-6.1-2.9-9.9-7.7-9.9s-9.5,4.9-9.5,10.8v17.9c0,4.2,2.8,4.2,3.4,4.2v.9h-11.4v-.9c.7,0,3.4,0,3.4-4.2v-24.8c0-4.2-2.8-4.2-3.4-4.2v-.9h8v5.5c2.3-4,6-6.2,10.3-6.2,6.6,0,11.5,5,11.5,11.8v18.8Z"/>
      <path class="st0" d="M1254.9,1872.2v-1.9c8,0,8-8.5,8-11h1.9v11h10.9v1.9h-10.9v24.3c0,9.2,9.8,8.6,11.8,2.8l.5.8c-2.8,8.7-16.8,8-16.8-3.6v-24.3h-5.4Z"/>
      <path class="st0" d="M1292.9,1869.6c8.6,0,14,8,13.9,16.4h-23.8c0,.6,0,1.2,0,1.8,0,8.6,2.7,16.3,10.6,16.3s10.4-3.9,11.1-11.1h.9l-.7,9.2c-3,2.5-6.9,3.8-11.2,3.8-9.1,0-15.5-7.3-15.5-18.2s5.9-18.2,14.8-18.2ZM1301.9,1884c-.5-8-3.6-12.6-8.9-12.6s-9.1,4.2-9.8,12.6h18.7Z"/>
      <path class="st0" d="M1335.3,1872.7l-2.4,3.8c-1-3.1-3.3-4.9-6.1-4.9-5.5,0-8.6,11.2-8.6,28.6s2.8,4.2,3.4,4.2v.9h-11.4v-.9c.7,0,3.4,0,3.4-4.2v-24.8c0-4.2-2.8-4.2-3.4-4.2v-.9h8v10.9c1.6-5.8,4.1-11.5,9.3-11.5s5.9,1.2,7.7,3.1Z"/>
      <path class="st0" d="M1369.6,1906c-10.2,0-16-9.4-16-18.3s5.1-18.1,16-18.1,16,9.5,16,18.1-5.2,18.3-16,18.3h0ZM1371.1,1904c9-.8,10.4-9.9,9.8-17.2-.6-7.1-3.6-16-12.6-15.2-9.1.8-10.4,10-9.8,17.1.7,7.3,4.2,16.1,12.6,15.3h0Z"/>
      <path class="st0" d="M1414.1,1872.7l-2.4,3.8c-1-3.1-3.3-4.9-6.1-4.9-5.5,0-8.6,11.2-8.6,28.6s2.8,4.2,3.4,4.2v.9h-11.4v-.9c.7,0,3.4,0,3.4-4.2v-24.8c0-4.2-2.8-4.2-3.4-4.2v-.9h8v10.9c1.6-5.8,4.1-11.5,9.3-11.5s5.9,1.2,7.7,3.1Z"/>
      <path class="st0" d="M1431.4,1887.8c0-11.6,4.8-18.2,13.2-18.2s8.1,2.3,10.3,6.2v-14.2c0-4.2-2.8-4.2-3.4-4.2v-.9h8v43.7c0,4.2,2.8,4.2,3.4,4.2v.9h-8v-5.5c-2.3,4-6,6.2-10.3,6.2-8.1,0-13.2-7-13.2-18.2h0ZM1436.3,1887.8c0,9.8,3.4,16.3,9.1,16.3s9.5-4.9,9.5-10.8v-10.8c0-5.9-4.3-10.9-9.5-10.9s-9.1,5.2-9.1,16.3h0Z"/>
      <path class="st0" d="M1480.2,1869.6c8.6,0,14,8,13.9,16.4h-23.8c0,.6,0,1.2,0,1.8,0,8.6,2.7,16.3,10.6,16.3s10.4-3.9,11.1-11.1h.9l-.7,9.2c-3,2.5-6.9,3.8-11.2,3.8-9.1,0-15.5-7.3-15.5-18.2s5.9-18.2,14.8-18.2ZM1489.1,1884c-.5-8-3.6-12.6-8.9-12.6s-9.1,4.2-9.8,12.6h18.7Z"/>
      <path class="st0" d="M1498.2,1892.9h.9c2,7.4,5.9,11.1,10.3,11.1s7.8-1.4,7.8-6.1c0-5.8-4.2-7.4-9-10-4.5-2.4-9.8-4.2-9.8-10s4.9-8.4,11-8.4,6.9,1.1,9.4,3.4l.7,6.7h-.9c-.7-3.9-4.6-8.1-9.2-8.1s-6.5,1.5-6.5,5.4,3.4,5.4,7.8,7.6c4.8,2.5,11,5.5,11,11.4s-6,10-12.4,10-7.4-1.6-10.4-4.3l-.9-8.8Z"/>
      <path class="st0" d="M1572,1871.1l-8.9.7c3.1,1.9,5.3,5.2,6,9,1.3,7.6-3.4,13.9-11.3,15.6l-8.6,1.8c-2.5.5-3.4,2.1-3,4,.4,1.7,2.9,3.9,10.9.4,4.1-1.8,7.5-2.3,10-.1.3.2.5.4.8.6,1.1.9,1.5,1.8,3.4,1.3l.7.8-29,14.5-.6-.9,23.2-12c-.5-2.9-3.3-4.9-7.9-2.7-8.3,3.8-15.5,2.7-16.3-1.1-.7-3.2,2.2-5.7,7.6-6.7l2.7-.5c-5.1-1.3-8.8-5.1-9.7-10.2-1.3-7.7,3.4-14.2,11.3-15.6,2.4-.4,4-.6,18.8.1v.9ZM1564,1882.6c-.7-7.5-3.8-11.2-9.6-10.6-5.9.5-8.2,4.7-7.5,12.2.7,8,3.8,11.8,9.6,11,5.7-.7,8.1-5.3,7.5-12.5Z"/>
      <path class="st0" d="M1604.5,1900.2c0,4.2,2.8,4.2,3.4,4.2v.9h-11.4v-.9c.7,0,3.4,0,3.4-4.2v-18.8c0-6.1-2.9-9.9-7.7-9.9s-9.5,4.9-9.5,10.8v17.9c0,4.2,2.8,4.2,3.4,4.2v.9h-11.4v-.9c.7,0,3.4,0,3.4-4.2v-24.8c0-4.2-2.8-4.2-3.4-4.2v-.9h8v5.5c2.3-4,6-6.2,10.3-6.2,6.6,0,11.5,5,11.5,11.8v18.8Z"/>
      <path class="st0" d="M1626.2,1892.9h.9c2,7.4,5.9,11.1,10.3,11.1s7.8-1.4,7.8-6.1c0-5.8-4.2-7.4-9-10-4.5-2.4-9.8-4.2-9.8-10s4.9-8.4,11-8.4,6.9,1.1,9.4,3.4l.7,6.7h-.9c-.7-3.9-4.6-8.1-9.2-8.1s-6.5,1.5-6.5,5.4,3.4,5.4,7.8,7.6c4.8,2.5,11,5.5,11,11.4s-6,10-12.4,10-7.4-1.6-10.4-4.3l-.9-8.8Z"/>
      <path class="st0" d="M1651.9,1872.2v-1.9c8,0,8-8.5,8-11h1.9v11h10.9v1.9h-10.9v24.3c0,9.2,9.8,8.6,11.8,2.8l.5.8c-2.8,8.7-16.8,8-16.8-3.6v-24.3h-5.4Z"/>
      <path class="st0" d="M1705.5,1900.2c0,4.2,2.8,4.2,3.4,4.2v.9h-8v-5.5c-2.3,4-6,6.2-10.3,6.2-6.6,0-11.5-5-11.5-11.8v-18.8c0-4.2-2.8-4.2-3.4-4.2v-.9h8v23.9c0,6.1,2.9,9.9,7.7,9.9s9.5-4.9,9.5-10.8v-17.9c0-4.2-2.8-4.2-3.4-4.2v-.9h8v29.9Z"/>
      <path class="st0" d="M1712.4,1887.8c0-11.6,4.8-18.2,13.2-18.2s8.1,2.3,10.3,6.2v-14.2c0-4.2-2.8-4.2-3.4-4.2v-.9h8v43.7c0,4.2,2.8,4.2,3.4,4.2v.9h-8v-5.5c-2.3,4-6,6.2-10.3,6.2-8.1,0-13.2-7-13.2-18.2h0ZM1717.3,1887.8c0,9.8,3.4,16.3,9.1,16.3s9.5-4.9,9.5-10.8v-10.8c0-5.9-4.3-10.9-9.5-10.9s-9.1,5.2-9.1,16.3h0Z"/>
      <path class="st0" d="M1778.3,1906c-10.2,0-16-9.4-16-18.3s5.1-18.1,16-18.1,16,9.5,16,18.1-5.2,18.3-16,18.3h0ZM1779.7,1904c9-.8,10.4-9.9,9.8-17.2-.6-7.1-3.6-16-12.6-15.2-9.1.8-10.4,10-9.8,17.1.7,7.3,4.2,16.1,12.6,15.3h0Z"/>
      <g>
        <path class="st0" d="M1755.4,1900.2v-29.9h-8v.9c.7,0,3.4,0,3.4,4.2v24.8c0,4.2-2.8,4.2-3.4,4.2v.9h11.4v-.9c-.7,0-3.4,0-3.4-4.2Z"/>
        <path class="st0" d="M1753.1,1865.7c1-2,1.9-2.9,3.9-3.9-2-1-2.9-1.9-3.9-3.9-1,2-1.9,2.9-3.9,3.9,2,1,2.9,1.9,3.9,3.9Z"/>
      </g>
      <g>
        <path class="st0" d="M1533.9,1900.2v-29.9h-8v.9c.7,0,3.4,0,3.4,4.2v24.8c0,4.2-2.8,4.2-3.4,4.2v.9h11.4v-.9c-.7,0-3.4,0-3.4-4.2Z"/>
        <path class="st0" d="M1531.7,1865.7c1-2,1.9-2.9,3.9-3.9-2-1-2.9-1.9-3.9-3.9-1,2-1.9,2.9-3.9,3.9,2,1,2.9,1.9,3.9,3.9Z"/>
      </g>
      <g>
        <path class="st0" d="M1346.7,1900.2v-29.9h-8v.9c.7,0,3.4,0,3.4,4.2v24.8c0,4.2-2.8,4.2-3.4,4.2v.9h11.4v-.9c-.7,0-3.4,0-3.4-4.2Z"/>
        <path class="st0" d="M1344.5,1865.7c1-2,1.9-2.9,3.9-3.9-2-1-2.9-1.9-3.9-3.9-1,2-1.9,2.9-3.9,3.9,2,1,2.9,1.9,3.9,3.9Z"/>
      </g>
      <g>
        <path class="st0" d="M1213.7,1900.2v-29.9h-8v.9c.7,0,3.4,0,3.4,4.2v24.8c0,4.2-2.8,4.2-3.4,4.2v.9h11.5v-.9c-.7,0-3.4,0-3.4-4.2Z"/>
        <path class="st0" d="M1211.4,1865.7c1-2,1.9-2.9,3.9-3.9-2-1-2.9-1.9-3.9-3.9-1,2-1.9,2.9-3.9,3.9,2,1,2.9,1.9,3.9,3.9Z"/>
      </g>
    </g>
  </g>
  <g>
    <path class="st0" d="M843.5,1760.6v-2.7c2,0,10.2,0,10.2-12.5v-114.6c0-12.5-8.2-12.5-10.2-12.5v-2.7h34.4v2.7c-2,0-10.2,0-10.2,12.5v46.3h70v-46.3c0-12.5-8.2-12.5-10.2-12.5v-2.7h34.4v2.7c-2,0-10.2,0-10.2,12.5v114.6c0,12.5,8.2,12.5,10.2,12.5v2.7h-34.4v-2.7c2,0,10.2,0,10.2-12.5v-62.6h-70v62.6c0,12.5,8.2,12.5,10.2,12.5v2.7h-34.4Z"/>
    <path class="st0" d="M1026.4,1762.6c-30.2,0-47.5-28-47.5-54.2s15.2-53.8,47.5-53.8,47.5,28.2,47.5,53.8-15.5,54.2-47.5,54.2h0ZM1030.7,1756.7c26.8-2.4,31-29.5,28.9-51.1-1.8-21.2-10.8-47.5-37.4-45.1-27,2.4-30.8,29.7-28.9,50.7,2,21.6,12.6,47.7,37.4,45.5h0Z"/>
    <path class="st0" d="M1175.4,1745.4c0,12.5,8.2,12.5,10.2,12.5v2.7h-23.7v-16.3c-6.9,11.8-17.7,18.3-30.5,18.3-19.6,0-34.2-14.9-34.2-35v-55.9c0-12.5-8.2-12.5-10.2-12.5v-2.7h23.7v71c0,18.2,8.6,29.3,22.9,29.3s28.2-14.6,28.2-32.1v-53c0-12.5-8.2-12.5-10.2-12.5v-2.7h23.7v88.8Z"/>
    <path class="st0" d="M1199.8,1724h2.7c6,22.1,17.6,33,30.6,33s23.1-4,23.1-18.1c0-17.3-12.5-22.1-26.7-29.7-13.3-7.2-28.9-12.4-28.9-29.7s14.7-24.9,32.6-24.9,20.6,3.3,27.9,10l2.1,19.8h-2.7c-2.2-11.5-13.6-24-27.3-24s-19.3,4.4-19.3,16.1,10.2,16,23,22.6c14.4,7.3,32.8,16.2,32.8,33.8s-17.7,29.8-36.7,29.8-22-4.8-30.7-12.6l-2.6-26Z"/>
    <path class="st0" d="M1329.1,1654.5c25.5,0,41.5,23.6,41.1,48.7h-70.5c0,1.8-.1,3.5-.1,5.3,0,25.4,7.9,48.3,31.5,48.3s30.8-11.5,32.8-33h2.6l-2.2,27.4c-8.9,7.4-20.5,11.3-33.3,11.3-27,0-46.1-21.8-46.1-54s17.5-54,44-54ZM1355.6,1697.5c-1.3-23.8-10.8-37.3-26.5-37.3s-26.9,12.5-29,37.3h55.5Z"/>
    <path class="st0" d="M1475.1,1762.6c-30.2,0-47.5-28-47.5-54.2s15.2-53.8,47.5-53.8,47.5,28.2,47.5,53.8-15.5,54.2-47.5,54.2h0ZM1479.3,1756.7c26.8-2.4,31-29.5,28.9-51.1-1.8-21.2-10.8-47.5-37.4-45.1-27,2.4-30.8,29.7-28.9,50.7,2,21.6,12.6,47.7,37.4,45.5h0Z"/>
    <path class="st0" d="M1528.7,1760.6v-2.7c2,0,10.2,0,10.2-12.5v-83.1h-10v-5.7h10.4c.2-27.8,11.3-42.8,31.8-42.8s17.4,3.5,22.9,9.1l-7,11.2c-3-9.3-9.7-14.6-18-14.6-17,0-16.8,20.9-16.8,37h25v5.7h-24.8v83.1c0,12.5,8.2,12.5,10.2,12.5v2.7h-34Z"/>
    <path class="st0" d="M1805.4,1615.6h26.4v2.7c-2.1,0-11.1,0-15.3,12.7l-42.4,129.5h-6.1l-36.3-104.6-34.2,104.6h-6.1l-45-129.5c-4.4-12.8-13.6-12.8-15.7-12.8v-2.7h36.6v2.7c-6.5,0-8.1,3.6-5.3,12.2l35.9,108,30.3-92.2-5.3-15.2c-4.4-12.8-13.6-12.8-15.7-12.8v-2.7h26.4l40.9,122.9,36.1-109.8c2.8-10.4-3.5-10.4-5.4-10.4v-2.7Z"/>
    <path class="st0" d="M1929.2,1745.4c0,12.5,8.2,12.5,10.2,12.5v2.7h-34v-2.7c2,0,10.2,0,10.2-12.5v-55.9c0-18.2-8.6-29.3-22.9-29.3s-28.2,14.6-28.2,32.1v53c0,12.5,8.2,12.5,10.2,12.5v2.7h-34v-2.7c2,0,10.2,0,10.2-12.5v-114.6c0-12.5-8.2-12.5-10.2-12.5v-2.7h23.7v57.2c6.9-11.8,17.7-18.3,30.5-18.3,19.6,0,34.2,14.9,34.2,35v55.9Z"/>
    <path class="st0" d="M1997.5,1662.3v-5.7c23.7,0,23.7-25.1,23.7-32.7h5.7v32.8h32.2v5.7h-32.2v72c0,27.2,29,25.6,34.9,8.5l1.4,2.3c-8.4,25.9-49.8,23.9-49.8-10.7v-72h-16Z"/>
    <path class="st0" d="M2115.3,1654.5c25.5,0,41.5,23.6,41.1,48.7h-70.5c0,1.8-.1,3.5-.1,5.3,0,25.4,7.9,48.3,31.5,48.3s30.8-11.5,32.8-33h2.6l-2.2,27.4c-8.9,7.4-20.5,11.3-33.3,11.3-27,0-46.1-21.8-46.1-54s17.5-54,44-54ZM2141.8,1697.5c-1.3-23.8-10.8-37.3-26.5-37.3s-26.9,12.5-29,37.3h55.5Z"/>
    <g>
      <path class="st0" d="M1976.3,1745.4v-88.8h-23.7v2.7c2,0,10.2,0,10.2,12.5v73.7c0,12.5-8.2,12.5-10.2,12.5v2.7h34v-2.7c-2,0-10.2,0-10.2-12.5Z"/>
      <path class="st0" d="M1969.5,1643.4c3.2-6.1,5.7-8.7,11.9-11.9-6.1-3.2-8.7-5.7-11.9-11.9-3.2,6.1-5.7,8.7-11.9,11.9,6.1,3.2,8.7,5.7,11.9,11.9Z"/>
    </g>
  </g>
</svg>