<?xml version="1.0" encoding="UTF-8"?>
<svg id="Layer_1" xmlns="http://www.w3.org/2000/svg" version="1.1" viewBox="0 0 3000 3000">
  <!-- Generator: Adobe Illustrator 29.4.0, SVG Export Plug-In . SVG Version: 2.1.0 Build 152)  -->
  <defs>
    <style>
      .st0 {
        fill: #231f20;
      }
    </style>
  </defs>
  <path class="st0" d="M2115.4,894.8v1207.1c0,5.8.7,12.1,2.1,18.9,1.5,6.9,3.8,13.4,7,19.5,3.3,6.1,7,11.2,11.4,15.1,4.3,4,9.3,6,15.1,6h5.4v10.8h-164.9c-41.5,0-172.4-220.1-268.4-455.3v391.5c0,5.2.8,11,2.4,17.1,1.6,6.3,3.8,12,6.4,17.2,2.6,5.2,5.7,9.8,9.3,13.8,3.6,3.9,7.7,5.9,12.3,5.9h4.9v9.8h-137.3v-9.8h4.9c4.6,0,8.8-1.8,12.8-5.4,3.9-3.6,7.4-8.2,10.3-13.7,3-5.6,5.1-11.4,6.4-17.7,1.3-6.2,2-11.9,2-17.1v-266.9h-314v266.9c0,5.2.6,11,2,17.1,1.3,6.3,3.3,12,5.9,17.2,2.6,5.2,5.7,9.8,9.3,13.8,3.6,3.9,8,5.9,13.2,5.9h4.9v9.8h-137.3v-9.8h4.9c4.6,0,8.8-1.8,12.8-5.4,3.9-3.6,7.3-8.2,10.3-13.7,3-5.6,5.1-11.4,6.4-17.7,1.3-6.2,2-11.9,2-17.1v-393.9c-96.1,236.1-227.7,457.7-269.4,457.7h-164.9v-10.8h5.4c5.8,0,10.8-2,15.1-6,4.3-3.9,8.1-9,11.4-15.1,3.3-6.1,5.6-12.6,7-19.5,1.4-6.8,2.1-13.1,2.1-18.9V894.8c0-5-.7-10.8-2.1-17.3-1.5-6.5-3.8-12.6-7-18.4-3.3-5.7-7-10.6-11.4-14.6-4.3-4-9.3-6-15.1-6h-5.4v-10.8h153.4v10.8h-5.4c-5.1,0-9.7,2-14.1,6-4.3,3.9-7.9,8.6-10.8,14-2.9,5.4-5.3,11.5-7,18.4-1.8,6.9-2.7,12.8-2.7,17.8v1207.1c0,5.8,1.6,59.4,40,59.4s146.6-242.9,257.4-573c8.1-24.2,15.6-48.9,22.5-73.9,4.7-16.8,9-33.8,13.2-50.7,67.5-278,67.1-568.9,67.1-569,0-5-.7-10.8-2.1-17.3-1.5-6.5-3.8-12.6-7-18.4-3.3-5.7-7-10.6-11.4-14.6-4.3-4-9.4-6-15.1-6h-5.4v-10.8h153.4v10.8h-5.4c-5,0-9.7,2-14,6-4.3,3.9-8,8.6-10.8,14-2.9,5.4-5.2,11.5-7,18.4-1.8,6.9-2.7,12.8-2.7,17.8s-.3,290.9-68.6,569c-1.9,7.6-17.4,343.4-17.4,343.4h314s-13.2-322.3-18.4-343.4c-68.3-278.1-68.6-568.9-68.6-569,0-5-.9-11-2.7-17.8-1.8-6.9-4.1-13-7-18.4-2.9-5.4-6.5-10.1-10.8-14-4.3-4-9-6-14-6h-5.4v-10.8h153.4v10.8h-5.4c-5.7,0-10.8,2-15.1,6-4.3,3.9-8.1,8.8-11.4,14.6-3.2,5.8-5.6,11.9-7,18.4-1.4,6.5-2.1,12.3-2.1,17.3,0,0-.4,290.9,67.1,569,4.3,17.7,8.9,35.4,13.8,53,6.7,24.2,14,48.2,21.9,71.6,110.8,330.1,225.6,573,257.4,573s40-53.6,40-59.4V894.8c0-5-.9-11-2.7-17.8-1.8-6.9-4.1-13-7-18.4-2.9-5.4-6.5-10.1-10.8-14-4.3-4-9-6-14.1-6h-5.4v-10.8h153.4v10.8h-5.4c-5.8,0-10.8,2-15.1,6-4.3,3.9-8.1,8.8-11.4,14.6-3.3,5.8-5.6,11.9-7,18.4-1.4,6.5-2.1,12.3-2.1,17.3Z"/>
</svg>