<?xml version="1.0" encoding="UTF-8"?>
<svg id="Layer_1" xmlns="http://www.w3.org/2000/svg" version="1.1" viewBox="0 0 3000 3000">
  <!-- Generator: Adobe Illustrator 29.4.0, SVG Export Plug-In . SVG Version: 2.1.0 Build 152)  -->
  <defs>
    <style>
      .st0 {
        fill: #fff;
      }
    </style>
  </defs>
  <path class="st0" d="M1316.1,827.8v10.8h5.4c5.8,0,10.8,2,15.1,5.9,4.3,4,8.1,8.8,11.3,14.6,3.2,5.8,5.6,11.9,7,18.4,1.4,6.5,2.2,12.3,2.2,17.3,0,0,.5,385.8-102.8,693.5-110.8,330.1-225.6,573-257.4,573s-40-53.6-40-59.4V894.8c0-5,.9-11,2.7-17.8,1.8-6.8,4.1-13,7-18.4,2.9-5.4,6.5-10.1,10.8-14,4.3-4,9-5.9,14-5.9h5.4v-10.8h-153.4v10.8h5.4c5.8,0,10.8,2,15.1,5.9,4.3,4,8.1,8.8,11.3,14.6,3.2,5.8,5.6,11.9,7,18.4,1.4,6.5,2.2,12.3,2.2,17.3v1207.1c0,5.8-.7,12.1-2.2,18.9-1.5,6.9-3.8,13.3-7,19.4-3.2,6.1-7,11.2-11.3,15.1-4.3,4-9.4,5.9-15.1,5.9h-5.4v10.8s152.5,0,164.9,0c49,0,222.9-307.4,316.6-583.8,104.2-307.8,104.6-693.5,104.6-693.5,0-5,.9-11,2.7-17.8,1.8-6.8,4.1-13,7-18.4,2.9-5.4,6.5-10.1,10.8-14,4.3-4,9-5.9,14-5.9h5.4v-10.8h-153.4Z"/>
  <path class="st0" d="M1683.9,827.8v10.8h-5.4c-5.8,0-10.8,2-15.1,5.9-4.3,4-8.1,8.8-11.3,14.6-3.2,5.8-5.6,11.9-7,18.4-1.4,6.5-2.2,12.3-2.2,17.3,0,0-.5,385.8,102.8,693.5,110.8,330.1,225.6,573,257.4,573,38.3,0,40-53.6,40-59.4V894.8c0-5-.9-11-2.7-17.8-1.8-6.8-4.1-13-7-18.4-2.9-5.4-6.5-10.1-10.8-14-4.3-4-9-5.9-14-5.9h-5.4v-10.8h153.4v10.8h-5.4c-5.8,0-10.8,2-15.1,5.9-4.3,4-8.1,8.8-11.3,14.6-3.2,5.8-5.6,11.9-7,18.4-1.4,6.5-2.2,12.3-2.2,17.3v1207.1c0,5.8.7,12.1,2.2,18.9,1.5,6.9,3.8,13.3,7,19.4,3.2,6.1,7,11.2,11.3,15.1,4.3,4,9.4,5.9,15.1,5.9h5.4v10.8s-152.5,0-164.9,0c-49,0-222.9-307.4-316.6-583.8-104.2-307.8-104.6-693.5-104.6-693.5,0-5-.9-11-2.7-17.8-1.8-6.8-4.1-13-7-18.4-2.9-5.4-6.5-10.1-10.8-14-4.3-4-9-5.9-14-5.9h-5.4v-10.8h153.4Z"/>
  <path class="st0" d="M1440.3,2172.2v-10.8h-5.4c-5.8,0-10.8-2-15.1-5.9-4.3-4-8.1-8.8-11.3-14.6-3.2-5.8-5.6-11.9-7-18.4-1.4-6.5-2.2-12.3-2.2-17.3v-292.6c0-244.5,201.6-242.1,201.6,0v292.6c0,5-.7,10.8-2.2,17.3-1.4,6.5-3.8,12.6-7,18.4-3.2,5.8-7,10.6-11.3,14.6-4.3,3.9-9.3,5.9-15.1,5.9h-5.4v10.8h153.4v-10.8h-5.4c-5,0-9.7-2-14-5.9-4.3-4-8.1-8.8-11.3-14.6-3.2-5.8-5.6-11.9-7-18.4-1.4-6.5-2.2-12.3-2.2-17.3v-292.6c0-45.4-5.8-83-17.3-112.9-11.5-29.9-27.4-53.5-47.5-70.8-67.4-57.8-158.2-50.2-216.7,0-20.2,17.3-36,40.9-47.5,70.8-11.5,29.9-17.3,67.5-17.3,112.9v292.6c0,5-.7,10.8-2.2,17.3-1.5,6.5-3.8,12.6-7,18.4-3.2,5.8-7,10.6-11.3,14.6-4.3,3.9-9,5.9-14,5.9h-5.4v10.8h153.4Z"/>
</svg>